{"title":"Intruders.2011.LiMiTED.720p.BRRip.x264.Feel-Free","uid":7245889,"size":2639340811,"categoryP":"video","categoryS":"hd___movies","magnet":"?xt=urn:btih:3bb88ed1c764085682fdb5b84a83d2f9380c2cbd&amp;dn=Intruders.2011.LiMiTED.720p.BRRip.x264.Feel-Free&amp;tr=udp%3A%2F%2Ftracker.openbittorrent.com%3A80&amp;tr=udp%3A%2F%2Fopen.demonii.com%3A1337&amp;tr=udp%3A%2F%2Ftracker.coppersurfer.tk%3A6969&amp;tr=udp%3A%2F%2Fexodus.desync.com%3A6969","seeders":0,"leechers":1,"uploader":"hiest","files":-1,"time":1336291456,"description":"8888888888                888      8888888888                       \n888                       888      888                              \n888                       888      888                              \n8888888  .d88b.   .d88b.  888      8888888 888d888 .d88b.   .d88b.  \n888     d8P  Y8b d8P  Y8b 888      888     888P&quot;  d8P  Y8b d8P  Y8b \n888     88888888 88888888 888      888     888    88888888 88888888 \n888     Y8b.     Y8b.     888      888     888    Y8b.     Y8b.     \n888      &quot;Y8888   &quot;Y8888  888      888     888     &quot;Y8888   &quot;Y8888  \n\nGenre:Horror | Thriller\nLanguage:English\nIMDb:http://www.imdb.com/title/tt1634121/\nSource:720p.BluRay.x264.-ALLiANCE Thanks!\nSubtitles:English\nEncoder:Tony\n\n\nFormat : MPEG-4\nFormat profile : Base Media\nCodec ID : isom\nFile size : 2.39 GiB\nDuration : 1h 39mn\nOverall bit rate mode : Variable\nOverall bit rate : 3 421 Kbps\n\nVideo\nID : 1\nFormat : AVC\nFormat/Info : Advanced Video Codec\nFormat profile : &lt;a class=&quot;__cf_email__&quot; href=&quot;/cdn-cgi/l/email-protection&quot; data-cfemail=&quot;c68eafa1ae868af3e8f7&quot;&gt;[email&amp;#160;protected]&lt;/a&gt;&lt;script cf-hash='f9e31' type=&quot;text/javascript&quot;&gt;\n/* &lt;![CDATA[ */!function(){try{var t=&quot;currentScript&quot;in document?document.currentScript:function(){for(var t=document.getElementsByTagName(&quot;script&quot;),e=t.length;e--;)if(t[e].getAttribute(&quot;cf-hash&quot;))return t[e]}();if(t&amp;&amp;t.previousSibling){var e,r,n,i,c=t.previousSibling,a=c.getAttribute(&quot;data-cfemail&quot;);if(a){for(e=&quot;&quot;,r=parseInt(a.substr(0,2),16),n=2;a.length-n;n+=2)i=parseInt(a.substr(n,2),16)^r,e+=String.fromCharCode(i);e=document.createTextNode(e),c.parentNode.replaceChild(e,c)}}}catch(u){}}();/* ]]&gt; */&lt;/script&gt;\nFormat settings, CABAC : Yes\nFormat settings, ReFrames : 3 frames\nCodec ID : avc1\nCodec ID/Info : Advanced Video Coding\nDuration : 1h 39mn\nBit rate : 3 000 Kbps\nMaximum bit rate : 14.3 Mbps\nWidth : 1 280 pixels\nHeight : 544 pixels\nDisplay aspect ratio : 2.35:1\nFrame rate mode : Constant\nFrame rate : 23.976 fps\nColor space : YUV\nChroma subsampling : 4:2:0\nBit depth : 8 bits\nScan type : Progressive\nBits/(Pixel*Frame) : 0.180\nStream size : 2.08 GiB (87%)\nWriting library : x264\n\nAudio\nID : 2\nFormat : AAC\nFormat/Info : Advanced Audio Codec\nFormat profile : LC\nCodec ID : 40\nDuration : 1h 39mn\nBit rate mode : Variable\nBit rate : 435 Kbps\nMaximum bit rate : 549 Kbps\nChannel(s) : 6 channels\nChannel positions : Front: L C R, Side: L R, LFE\nSampling rate : 48.0 KHz\nCompression mode : Lossy\nStream size : 311 MiB (13%)\n\n\nPlot:\nTwo children living in different countries are visited nightly by a faceless being who wants to take possession of them.\n\n\nScreen Shots:\n     &lt;a href=&quot;\nhttp://img515.imageshack.us/img515/7512/vlcsnap2012050607h56m49.png&quot; rel=&quot;nofollow&quot; target=&quot;_NEW&quot;&gt;\nhttp://img515.imageshack.us/img515/7512/vlcsnap2012050607h56m49.png&lt;/a&gt;\n &lt;a href=&quot;\nhttp://img801.imageshack.us/img801/5027/vlcsnap2012050607h56m12.png&quot; rel=&quot;nofollow&quot; target=&quot;_NEW&quot;&gt;\nhttp://img801.imageshack.us/img801/5027/vlcsnap2012050607h56m12.png&lt;/a&gt;\n &lt;a href=&quot;\nhttp://img18.imageshack.us/img18/4886/vlcsnap2012050607h56m26.png&quot; rel=&quot;nofollow&quot; target=&quot;_NEW&quot;&gt;\nhttp://img18.imageshack.us/img18/4886/vlcsnap2012050607h56m26.png&lt;/a&gt;\n &lt;a href=&quot;\nhttp://img88.imageshack.us/img88/1178/vlcsnap2012050607h57m16.png&quot; rel=&quot;nofollow&quot; target=&quot;_NEW&quot;&gt;\nhttp://img88.imageshack.us/img88/1178/vlcsnap2012050607h57m16.png&lt;/a&gt;\n &lt;a href=&quot;\nhttp://img444.imageshack.us/img444/3624/vlcsnap2012050607h57m48.png&quot; rel=&quot;nofollow&quot; target=&quot;_NEW&quot;&gt;\nhttp://img444.imageshack.us/img444/3624/vlcsnap2012050607h57m48.png&lt;/a&gt;\n\n\n8888888888                888      8888888888                       \n888                       888      888                              \n888                       888      888                              \n8888888  .d88b.   .d88b.  888      8888888 888d888 .d88b.   .d88b.  \n888     d8P  Y8b d8P  Y8b 888      888     888P&quot;  d8P  Y8b d8P  Y8b \n888     88888888 88888888 888      888     888    88888888 88888888 \n888     Y8b.     Y8b.     888      888     888    Y8b.     Y8b.     \n888      &quot;Y8888   &quot;Y8888  888      888     888     &quot;Y8888   &quot;Y8888  ","torrent":{"xt":"urn:btih:3bb88ed1c764085682fdb5b84a83d2f9380c2cbd","amp;dn":"Intruders.2011.LiMiTED.720p.BRRip.x264.Feel-Free","amp;tr":["udp%3A%2F%2Ftracker.openbittorrent.com%3A80","udp%3A%2F%2Fopen.demonii.com%3A1337","udp%3A%2F%2Ftracker.coppersurfer.tk%3A6969","udp%3A%2F%2Fexodus.desync.com%3A6969"],"infoHash":"3bb88ed1c764085682fdb5b84a83d2f9380c2cbd","infoHashBuffer":{"type":"Buffer","data":[59,184,142,209,199,100,8,86,130,253,181,184,74,131,210,249,56,12,44,189]},"announce":[],"urlList":[]}}